<svg width="160" height="40" viewBox="0 0 160 40" fill="none" xmlns="http://www.w3.org/2000/svg">
<path d="M130.242 40C127.823 40 125.716 39.5262 123.923 38.5787C122.158 37.6041 120.792 36.291 119.824 34.6396C118.885 32.9882 118.416 31.1201 118.416 29.0355C118.416 26.599 118.928 24.5279 119.953 22.8223C121.006 21.0897 122.372 19.7631 124.051 18.8426C125.731 17.9222 127.51 17.4619 129.388 17.4619C130.84 17.4619 132.206 17.7462 133.487 18.3147C134.796 18.8832 135.949 19.6684 136.945 20.6701C137.941 21.6447 138.724 22.7817 139.293 24.0812C139.891 25.3807 140.19 26.7614 140.19 28.2234C140.162 28.8731 139.891 29.401 139.379 29.8071C138.866 30.2132 138.269 30.4162 137.586 30.4162H121.276L119.995 26.3553H135.664L134.725 27.1675V26.0711C134.668 25.286 134.369 24.5821 133.828 23.9594C133.316 23.3367 132.661 22.8494 131.864 22.4975C131.096 22.1184 130.271 21.9289 129.388 21.9289C128.534 21.9289 127.737 22.0372 126.997 22.2538C126.257 22.4704 125.617 22.8359 125.076 23.3503C124.535 23.8646 124.108 24.555 123.795 25.4213C123.482 26.2876 123.325 27.3841 123.325 28.7107C123.325 30.1726 123.639 31.4179 124.265 32.4467C124.919 33.4484 125.745 34.22 126.741 34.7614C127.766 35.2758 128.847 35.533 129.986 35.533C131.039 35.533 131.879 35.4518 132.505 35.2893C133.131 35.1269 133.629 34.9374 133.999 34.7208C134.398 34.4772 134.754 34.2741 135.067 34.1117C135.579 33.868 136.063 33.7462 136.518 33.7462C137.144 33.7462 137.657 33.9492 138.055 34.3553C138.482 34.7614 138.696 35.2352 138.696 35.7767C138.696 36.5076 138.297 37.1709 137.5 37.7665C136.76 38.3621 135.721 38.89 134.383 39.3503C133.046 39.7834 131.665 40 130.242 40Z" fill="#4A00E5"/>
<path d="M98.8432 36.2234C98.5586 35.8443 98.4305 35.357 98.459 34.7614C98.4874 34.1658 98.8574 33.6514 99.569 33.2183C100.024 32.9475 100.508 32.8393 101.021 32.8934C101.533 32.9205 102.031 33.1641 102.515 33.6244C103.34 34.4095 104.209 35.0186 105.119 35.4518C106.03 35.8849 107.169 36.1015 108.535 36.1015C108.962 36.0745 109.432 36.0203 109.944 35.9391C110.456 35.8308 110.897 35.6142 111.267 35.2893C111.666 34.9374 111.865 34.4095 111.865 33.7056C111.865 33.11 111.652 32.6362 111.225 32.2843C110.798 31.9323 110.229 31.6345 109.517 31.3909C108.834 31.1472 108.065 30.9171 107.211 30.7005C106.329 30.4569 105.418 30.1861 104.479 29.8883C103.568 29.5905 102.728 29.2115 101.96 28.7513C101.191 28.264 100.565 27.6278 100.081 26.8426C99.5975 26.0575 99.3556 25.0694 99.3556 23.8782C99.3556 22.5245 99.754 21.3739 100.551 20.4264C101.348 19.4789 102.373 18.7479 103.625 18.2335C104.906 17.7191 106.244 17.4619 107.638 17.4619C108.521 17.4619 109.446 17.5702 110.414 17.7868C111.381 17.9763 112.306 18.3012 113.189 18.7614C114.071 19.1946 114.811 19.7767 115.409 20.5076C115.722 20.9137 115.907 21.401 115.964 21.9695C116.021 22.5381 115.75 23.0525 115.153 23.5127C114.726 23.8376 114.228 23.9865 113.658 23.9594C113.089 23.9052 112.62 23.7157 112.249 23.3909C111.766 22.7953 111.111 22.3215 110.286 21.9695C109.489 21.6176 108.563 21.4416 107.51 21.4416C107.083 21.4416 106.614 21.4958 106.101 21.6041C105.618 21.6853 105.191 21.8883 104.821 22.2132C104.451 22.511 104.265 22.9983 104.265 23.6751C104.265 24.2978 104.479 24.7986 104.906 25.1777C105.333 25.5296 105.902 25.8274 106.614 26.0711C107.354 26.2877 108.137 26.5042 108.962 26.7208C109.816 26.9374 110.684 27.1946 111.566 27.4924C112.449 27.7902 113.26 28.1827 114 28.6701C114.74 29.1574 115.338 29.7936 115.793 30.5787C116.249 31.3367 116.476 32.3113 116.476 33.5025C116.476 34.8833 116.049 36.0609 115.195 37.0355C114.342 38.0102 113.274 38.7547 111.993 39.269C110.712 39.7563 109.403 40 108.065 40C106.386 40 104.707 39.7293 103.027 39.1878C101.348 38.6193 99.9533 37.6311 98.8432 36.2234Z" fill="#4A00E5"/>
<path d="M96.1822 37.1168C96.1822 37.8206 95.9402 38.4162 95.4564 38.9036C94.9725 39.3638 94.3605 39.5939 93.6205 39.5939C92.8804 39.5939 92.2684 39.3638 91.7846 38.9036C91.3007 38.4162 91.0588 37.8206 91.0588 37.1168V20.3452C91.0588 19.6413 91.3007 19.0592 91.7846 18.599C92.2684 18.1117 92.8804 17.868 93.6205 17.868C94.3605 17.868 94.9725 18.1117 95.4564 18.599C95.9402 19.0592 96.1822 19.6413 96.1822 20.3452V37.1168ZM93.5778 15.2284C92.61 15.2284 91.9269 15.0795 91.5284 14.7817C91.1299 14.4839 90.9307 13.956 90.9307 13.198V12.4264C90.9307 11.6413 91.1441 11.1134 91.5711 10.8426C92.0265 10.5448 92.7096 10.3959 93.6205 10.3959C94.6167 10.3959 95.314 10.5448 95.7125 10.8426C96.111 11.1404 96.3102 11.6684 96.3102 12.4264V13.198C96.3102 13.9831 96.0968 14.5245 95.6698 14.8223C95.2429 15.0931 94.5455 15.2284 93.5778 15.2284Z" fill="#4A00E5"/>
<path d="M86.1668 17.868C86.8215 17.868 87.3908 18.1117 87.8746 18.599C88.3585 19.0592 88.6005 19.6548 88.6005 20.3858C88.6005 20.5753 88.5862 20.7513 88.5578 20.9137C88.5293 21.0491 88.4866 21.1844 88.4297 21.3198L81.8973 38.0508C81.6981 38.5922 81.3423 39.0119 80.83 39.3097C80.3176 39.5804 79.7768 39.6751 79.2075 39.5939C78.2398 39.5398 77.514 39.0254 77.0301 38.0508L72.8033 26.4772L73.9133 26.5178L69.9427 38.0508C69.4588 39.0254 68.733 39.5398 67.7652 39.5939C67.2244 39.6751 66.6836 39.5804 66.1428 39.3097C65.6305 39.0119 65.2747 38.5922 65.0754 38.0508L58.5431 21.3198C58.4292 21.022 58.3723 20.7107 58.3723 20.3858C58.3723 19.736 58.6 19.154 59.0554 18.6396C59.5109 18.1252 60.137 17.868 60.934 17.868C61.4748 17.868 61.9587 17.9899 62.3857 18.2335C62.8126 18.4772 63.1115 18.8697 63.2823 19.4112L68.4484 32.731L67.381 32.6498L71.2662 22.6193C71.7217 21.6176 72.5044 21.1168 73.6145 21.1168C74.2407 21.1168 74.7103 21.2521 75.0234 21.5228C75.365 21.7665 75.6354 22.132 75.8346 22.6193L79.7199 32.6498L78.439 32.8122L83.6905 19.4112C84.0321 18.3824 84.8575 17.868 86.1668 17.868Z" fill="#4A00E5"/>
<path d="M53.0384 9.54315C53.7784 9.54315 54.3904 9.77327 54.8742 10.2335C55.3581 10.6937 55.6001 11.2893 55.6001 12.0203V37.1168C55.6001 37.8207 55.3581 38.4163 54.8742 38.9036C54.3904 39.3638 53.7784 39.5939 53.0384 39.5939C52.2983 39.5939 51.6863 39.3638 51.2025 38.9036C50.7186 38.4163 50.4766 37.8207 50.4766 37.1168V35.1269L51.4159 35.4924C51.4159 35.8443 51.2167 36.2775 50.8182 36.7919C50.4197 37.2792 49.8789 37.7665 49.1958 38.2538C48.5127 38.7411 47.7015 39.1608 46.7622 39.5127C45.8513 39.8376 44.8551 40 43.7735 40C41.8095 40 40.0306 39.5262 38.4366 38.5787C36.8427 37.6041 35.576 36.2775 34.6368 34.599C33.7259 32.8934 33.2705 30.9442 33.2705 28.7513C33.2705 26.5313 33.7259 24.5821 34.6368 22.9036C35.576 21.198 36.8284 19.8714 38.3939 18.9239C39.9594 17.9492 41.6957 17.4619 43.6027 17.4619C44.8267 17.4619 45.951 17.6379 46.9756 17.9899C48.0003 18.3418 48.8827 18.7885 49.6227 19.33C50.3913 19.8714 50.9748 20.4264 51.3732 20.9949C51.8002 21.5364 52.0137 21.9966 52.0137 22.3756L50.4766 22.9036V12.0203C50.4766 11.3164 50.7186 10.7344 51.2025 10.2741C51.6863 9.78681 52.2983 9.54315 53.0384 9.54315ZM44.4139 35.533C45.6663 35.533 46.7622 35.2352 47.7015 34.6396C48.6408 34.044 49.3666 33.2318 49.8789 32.2031C50.4197 31.1743 50.6901 30.0237 50.6901 28.7513C50.6901 27.4518 50.4197 26.2877 49.8789 25.2589C49.3666 24.2301 48.6408 23.4179 47.7015 22.8223C46.7622 22.2267 45.6663 21.9289 44.4139 21.9289C43.19 21.9289 42.1084 22.2267 41.1691 22.8223C40.2298 23.4179 39.4898 24.2301 38.949 25.2589C38.4366 26.2877 38.1804 27.4518 38.1804 28.7513C38.1804 30.0237 38.4366 31.1743 38.949 32.2031C39.4898 33.2318 40.2298 34.044 41.1691 34.6396C42.1084 35.2352 43.19 35.533 44.4139 35.533Z" fill="#4A00E5"/>
<path d="M30.3533 37.1168C30.3533 37.8206 30.1114 38.4162 29.6275 38.9036C29.1436 39.3638 28.5316 39.5939 27.7916 39.5939C27.0516 39.5939 26.4396 39.3638 25.9557 38.9036C25.4718 38.4162 25.2299 37.8206 25.2299 37.1168V20.3452C25.2299 19.6413 25.4718 19.0592 25.9557 18.599C26.4396 18.1117 27.0516 17.868 27.7916 17.868C28.5316 17.868 29.1436 18.1117 29.6275 18.599C30.1114 19.0592 30.3533 19.6413 30.3533 20.3452V37.1168ZM27.7489 15.2284C26.7811 15.2284 26.098 15.0795 25.6995 14.7817C25.301 14.4839 25.1018 13.956 25.1018 13.198V12.4264C25.1018 11.6413 25.3153 11.1134 25.7422 10.8426C26.1976 10.5448 26.8808 10.3959 27.7916 10.3959C28.7878 10.3959 29.4852 10.5448 29.8837 10.8426C30.2821 11.1404 30.4814 11.6684 30.4814 12.4264V13.198C30.4814 13.9831 30.2679 14.5245 29.841 14.8223C29.414 15.0931 28.7167 15.2284 27.7489 15.2284Z" fill="#4A00E5"/>
<path d="M11.8265 17.4619C13.819 17.4619 15.598 17.9492 17.1634 18.9239C18.7574 19.8714 20.0098 21.1844 20.9206 22.863C21.8599 24.5415 22.3295 26.4907 22.3295 28.7107C22.3295 30.9306 21.8599 32.8934 20.9206 34.599C20.0098 36.2775 18.7716 37.6041 17.2061 38.5787C15.6691 39.5262 13.9328 40 11.9973 40C10.8588 40 9.79142 39.824 8.7952 39.4721C7.79898 39.1201 6.91661 38.6734 6.1481 38.132C5.40805 37.5905 4.82455 37.0491 4.3976 36.5076C3.99911 35.9391 3.79987 35.4653 3.79987 35.0863L5.12341 34.5584V37.5229C5.12341 38.2267 4.88148 38.8223 4.3976 39.3097C3.91372 39.7699 3.30176 40 2.56171 40C1.82166 40 1.2097 39.7699 0.725817 39.3097C0.241939 38.8494 0 38.2538 0 37.5229V12.0203C0 11.3164 0.241939 10.7344 0.725817 10.2741C1.2097 9.78681 1.82166 9.54315 2.56171 9.54315C3.30176 9.54315 3.91372 9.78681 4.3976 10.2741C4.88148 10.7344 5.12341 11.3164 5.12341 12.0203V22.335L4.3976 21.9696C4.3976 21.6176 4.59684 21.198 4.99533 20.7107C5.39382 20.1963 5.93462 19.6954 6.61774 19.2081C7.30087 18.6937 8.08361 18.2741 8.96598 17.9492C9.8768 17.6244 10.8303 17.4619 11.8265 17.4619ZM11.1861 21.9289C9.93373 21.9289 8.83789 22.2267 7.8986 22.8223C6.9593 23.4179 6.21926 24.2301 5.67845 25.2589C5.16611 26.2606 4.90994 27.4112 4.90994 28.7107C4.90994 29.9831 5.16611 31.1472 5.67845 32.2031C6.21926 33.2318 6.9593 34.044 7.8986 34.6396C8.83789 35.2352 9.93373 35.533 11.1861 35.533C12.4385 35.533 13.5201 35.2352 14.431 34.6396C15.3702 34.044 16.0961 33.2318 16.6084 32.2031C17.1492 31.1472 17.4196 29.9831 17.4196 28.7107C17.4196 27.4112 17.1492 26.2606 16.6084 25.2589C16.0961 24.2301 15.3702 23.4179 14.431 22.8223C13.5201 22.2267 12.4385 21.9289 11.1861 21.9289Z" fill="#4A00E5"/>
<path d="M143.407 4.22031C144.176 2.07833 147.288 2.01346 148.2 4.0257L148.278 4.22153L149.316 7.11015C149.554 7.77261 149.939 8.37882 150.444 8.8879C150.949 9.39697 151.563 9.79706 152.245 10.0612L152.524 10.1603L155.561 11.1469C157.813 11.8788 157.881 14.8384 155.767 15.7062L155.561 15.7797L152.524 16.7674C151.827 16.9936 151.19 17.3594 150.654 17.8399C150.119 18.3205 149.698 18.9047 149.42 19.5532L149.316 19.8176L148.279 22.7074C147.509 24.8494 144.398 24.9143 143.487 22.9033L143.407 22.7074L142.37 19.8188C142.132 19.1561 141.747 18.5497 141.242 18.0404C140.737 17.5311 140.122 17.1308 139.441 16.8666L139.163 16.7674L136.126 15.7809C133.872 15.0489 133.804 12.0893 135.92 11.2227L136.126 11.1469L139.163 10.1603C139.859 9.93396 140.497 9.56815 141.032 9.08759C141.567 8.60702 141.988 8.02286 142.265 7.37453L142.37 7.11015L143.407 4.22031ZM156.138 2.21159e-07C156.378 -2.88827e-07 156.614 0.0642328 156.819 0.185399C157.023 0.306566 157.187 0.479807 157.293 0.685433L157.355 0.82864L157.805 2.08445L159.127 2.51285C159.368 2.59081 159.58 2.73514 159.735 2.92755C159.89 3.11996 159.981 3.35179 159.997 3.59365C160.014 3.83552 159.954 4.07653 159.826 4.28615C159.698 4.49576 159.508 4.66454 159.279 4.77111L159.127 4.82986L157.807 5.25825L157.356 6.51529C157.274 6.7447 157.122 6.94576 156.92 7.093C156.718 7.24024 156.474 7.32703 156.22 7.34236C155.965 7.3577 155.712 7.3009 155.492 7.17915C155.271 7.05741 155.094 6.8762 154.982 6.6585L154.92 6.51529L154.47 5.25948L153.148 4.83108C152.907 4.75312 152.695 4.60879 152.541 4.41638C152.386 4.22396 152.294 3.99214 152.278 3.75027C152.262 3.50841 152.321 3.2674 152.449 3.05778C152.577 2.84817 152.768 2.67938 152.996 2.57282L153.148 2.51407L154.469 2.08568L154.919 0.82864C155.006 0.586811 155.17 0.376876 155.388 0.228272C155.607 0.0796682 155.869 -0.000153343 156.138 2.21159e-07Z" fill="#4A90E7"/>
</svg>
